<svg xmlns="http://www.w3.org/2000/svg" viewBox="0 0 32 32" width="32" height="32" color="#B9C9D1" fill="none" role="img" aria-labelledby="title desc">
  <title id="title">Symbot arms</title>
  <desc id="desc">Mirrored articulated mechanical arms with armored shoulders and hands.</desc>
  <g stroke="currentColor" stroke-width="3.75" stroke-linecap="square" stroke-linejoin="miter">
    <path d="M4.5 4.5h6l3 3v5l-3 3h-6l-3-3v-5l3-3Z"/>
    <path d="M7 15.5h4.5v7L9 25H5.5v-5L7 18.5v-3Z"/>
    <path d="M5.5 25H10v3.5H4L2 26.5V23"/>
    <path d="M27.5 4.5h-6l-3 3v5l3 3h6l3-3v-5l-3-3Z"/>
    <path d="M25 15.5h-4.5v7L23 25h3.5v-5L25 18.5v-3Z"/>
    <path d="M26.5 25H22v3.5h6l2-2V23"/>
    <path d="M5.5 9.5h4M26.5 9.5h-4"/>
  </g>
</svg>
